<?xml version="1.0" encoding="UTF-8" standalone="no"?>
<svg
   xmlns:dc="http://purl.org/dc/elements/1.1/"
   xmlns:cc="http://creativecommons.org/ns#"
   xmlns:rdf="http://www.w3.org/1999/02/22-rdf-syntax-ns#"
   xmlns:svg="http://www.w3.org/2000/svg"
   xmlns="http://www.w3.org/2000/svg"
   xmlns:sodipodi="http://sodipodi.sourceforge.net/DTD/sodipodi-0.dtd"
   xmlns:inkscape="http://www.inkscape.org/namespaces/inkscape"
   id="e4bbe722-77af-4dff-9d23-13f94132c30a"
   data-name="Layer 1"
   width="921.71991"
   height="653.40956"
   viewBox="0 0 921.71991 653.40956"
   version="1.1"
   sodipodi:docname="hacker.svg"
   inkscape:version="0.92.4 (5da689c313, 2019-01-14)">
  <metadata
     id="metadata4730">
    <rdf:RDF>
      <cc:Work
         rdf:about="">
        <dc:format>image/svg+xml</dc:format>
        <dc:type
           rdf:resource="http://purl.org/dc/dcmitype/StillImage" />
        <dc:title>hacker_mindset</dc:title>
      </cc:Work>
    </rdf:RDF>
  </metadata>
  <defs
     id="defs4728" />
  <sodipodi:namedview
     pagecolor="#ffffff"
     bordercolor="#666666"
     borderopacity="1"
     objecttolerance="10"
     gridtolerance="10"
     guidetolerance="10"
     inkscape:pageopacity="0"
     inkscape:pageshadow="2"
     inkscape:window-width="1920"
     inkscape:window-height="1017"
     id="namedview4726"
     showgrid="false"
     inkscape:zoom="1.2324785"
     inkscape:cx="628.91437"
     inkscape:cy="320.95803"
     inkscape:window-x="3832"
     inkscape:window-y="-8"
     inkscape:window-maximized="1"
     inkscape:current-layer="e4bbe722-77af-4dff-9d23-13f94132c30a" />
  <title
     id="title4653">hacker_mindset</title>
  <ellipse
     cx="85.34394"
     cy="578.40956"
     rx="85"
     ry="6"
     fill="#d0cde1"
     id="ellipse4655" />
  <ellipse
     cx="343.34394"
     cy="642.90956"
     rx="221"
     ry="10.5"
     fill="#d0cde1"
     id="ellipse4657" />
  <polygon
     points="458.344 218.41 462.344 211.41 442.344 207.41 440.344 217.41 443.344 225.41 458.344 218.41"
     fill="#b23a48"
     id="polygon4659" />
  <polygon
     points="458.344 218.41 462.344 211.41 442.344 207.41 440.344 217.41 443.344 225.41 458.344 218.41"
     opacity="0.2"
     id="polygon4661" />
  <circle
     cx="446.84394"
     cy="187.90956"
     r="26"
     fill="#ffb8b8"
     id="circle4663" />
  <polygon
     points="424.844 187.91 403.844 222.91 434.844 240.91 450.844 203.91 424.844 187.91"
     fill="#ffb8b8"
     id="polygon4665" />
  <path
     d="M561.984,352.20478l-27-11s-41,7-45,20-4,118-4,118-10,26,4,27c0,0-4,6,0,7s45,0,61,5,48,9,48,4v-9s7-7,3-19-9-38-9-38,30-66,27-74-39.627-32.73752-39.627-32.73752Z"
     transform="translate(-139.14005 -123.29522)"
     fill="#b23a48"
     id="path4667" />
  <polygon
     points="360.844 355.91 361.844 363.91 375.844 346.91 370.844 346.91 360.844 355.91"
     fill="#ffb8b8"
     id="polygon4669" />
  <path
     d="M561.984,352.20478l-29-7s-6-5-6-11,9-15,15-21a5.53494,5.53494,0,0,1,4.02-1.67005c5.94-.05,13.14,7.74006,13.14,7.74006l-7.99,13.32995-.36.59Z"
     transform="translate(-139.14005 -123.29522)"
     fill="#b23a48"
     id="path4671" />
  <path
     d="M584.337,340.26347l17.147-5.55869s5.5,21.5-.5,22.5-39-2-39-2Z"
     transform="translate(-139.14005 -123.29522)"
     fill="#b23a48"
     id="path4673" />
  <path
     d="M491.984,508.20478l-13,74s-5,9-3,13,3,4,0,6-7,0-6,5a51.04342,51.04342,0,0,1,1,9l-28,96s-18,8-5,13,26,9,29,4,0-11,0-11l46-110s7-10,7-16,23-49,23-49,1,43,2,46-2,9-2,13-2,4,0,6,2,25,2,25-12,89-5,90,27-1,27-5-3-5-3-5l13-76s-1-5,1-9,2-4,2-6-1-3,0-4a4.93754,4.93754,0,0,0,1-3s-2-6-1-7,23-76,16-85S491.984,508.20478,491.984,508.20478Z"
     transform="translate(-139.14005 -123.29522)"
     fill="#2f2e41"
     id="path4675" />
  <path
     d="M540.984,719.20478l-7,16s-16,18-4,22,16,3,16,3,5,1,5,3,40,17,43,4-31-37-31-37v-12Z"
     transform="translate(-139.14005 -123.29522)"
     fill="#2f2e41"
     id="path4677" />
  <path
     d="M463.84928,726.61089l1.51424,17.39847s9.40163,22.17227-3.24739,22.12362-16.119-2.2756-16.119-2.2756-5.05717-.65191-5.69692,1.243S396.964,768.41226,398.28,755.13566s41.20659-25.13994,41.20659-25.13994L443.325,718.6262Z"
     transform="translate(-139.14005 -123.29522)"
     fill="#2f2e41"
     id="path4679" />
  <path
     d="M560.66011,318.32235c1.606-.10777,2.67686-1.85837,3.12129-3.5239s.55756-3.49031,1.46479-4.92153c2.486-3.92181,8.95008-2.33769,11.57509-6.153,1.61443-2.34646,1.27653-6.16723,3.60711-7.66021,1.47173-.9428,3.34776-.45722,4.96944.13509a54.30716,54.30716,0,0,1,17.11591,10.19386l2.08805-1.70011,2.6083,5.21428c1.01118-1.21946,2.96144-.274,3.81,1.08163s1.2604,3.0882,2.47038,4.0756c1.92859,1.5738,4.94138.24083,6.10956-2.0413s.97537-5.072.57046-7.6412a54.73664,54.73664,0,0,0-6.34849-18.32183l2.38634-1.43177-3.08517-.44062,1.1807-2.67875-3.23175-.03778,1.27614-2.28985c-4.34441,1.49085-8.8338-1.23972-12.98317-3.27543-6.94067-3.40513-14.74842-5.03925-22.28433-3.77426A28.16811,28.16811,0,0,0,558.02727,285.508c-3.28584,5.166-5.18305,12.66746-3.54049,18.854C555.97979,309.98536,562.49815,310.86064,560.66011,318.32235Z"
     transform="translate(-139.14005 -123.29522)"
     fill="#2f2e41"
     id="path4681"
     style="fill:#6c5353" />
  <path
     d="M495.984,357.20478s-6-1-10,7-34,72-19,92,29,26,29,26l3,1,15-16-5-7s0-7-4-8-4,2-5-2,4-1-1-5-1-6-1-6Z"
     transform="translate(-139.14005 -123.29522)"
     fill="#b23a48"
     id="path4683" />
  <polygon
     points="462.844 367.41 461.844 375.41 447.844 358.41 452.844 358.41 462.844 367.41"
     fill="#ffb8b8"
     id="polygon4685" />
  <path
     d="M600.484,378.70478s14-7,18,1,31.5,68,16.5,88-29,26-29,26l-3,1-15-16,5-7s0-7,4-8,4,2,5-2-4-1,1-5,1-6,1-6Z"
     transform="translate(-139.14005 -123.29522)"
     fill="#b23a48"
     id="path4687" />
  <polygon
     points="366.344 273.41 355.344 317.41 368.344 333.41 362.344 313.41 366.344 273.41"
     opacity="0.2"
     id="polygon4689" />
  <path
     d="M559.144,319.27479l-7.99,13.32995c-5.02-1.74-5.44-13.38995-5.15-21.07C551.944,311.48475,559.144,319.27479,559.144,319.27479Z"
     transform="translate(-139.14005 -123.29522)"
     opacity="0.2"
     id="path4691" />
  <path
     d="M389.24816,738.971c.17358,17.79415-10.34427,24.10956-23.39225,24.23685q-.45462.00443-.905-.00133-.90726-.01071-1.796-.06514c-11.78438-.71893-20.9982-7.1609-21.15964-23.70942-.16706-17.12566,21.50989-38.95143,23.13581-40.56545l.00287-.00148c.06177-.06151.09339-.09227.09339-.09227S389.07459,721.17826,389.24816,738.971Z"
     transform="translate(-139.14005 -123.29522)"
     fill="#d0cde1"
     id="path4693" />
  <path
     d="M355.2587,653.138c.12253,12.56057-7.30184,17.01851-16.51218,17.10836q-.32091.00314-.63879-.00094-.64042-.00756-1.2678-.046c-8.31838-.50748-14.82226-5.05475-14.93621-16.73606-.11793-12.0887,15.18345-27.49513,16.33116-28.63444l.002-.001c.0436-.04342.06592-.06513.06592-.06513S355.13618,640.5784,355.2587,653.138Z"
     transform="translate(-139.14005 -123.29522)"
     fill="#d0cde1"
     id="path4695" />
  <ellipse
     cx="199.34394"
     cy="545.18425"
     rx="60"
     ry="4.23529"
     fill="#d0cde1"
     id="ellipse4697" />
  <rect
     x="524.96798"
     y="279.81069"
     width="396.75193"
     height="202"
     fill="#3f3d56"
     id="rect4699" />
  <rect
     x="596.94506"
     y="347.82884"
     width="40.17978"
     height="3.34831"
     fill="#b23a48"
     id="rect4701" />
  <rect
     x="650.5181"
     y="347.82884"
     width="40.17978"
     height="3.34831"
     fill="#b23a48"
     id="rect4703" />
  <rect
     x="728.36641"
     y="378.80075"
     width="40.17978"
     height="3.34831"
     fill="#b23a48"
     id="rect4705" />
  <rect
     x="782.77653"
     y="378.80075"
     width="40.17978"
     height="3.34831"
     fill="#b23a48"
     id="rect4707" />
  <rect
     x="704.92821"
     y="347.82884"
     width="118.02809"
     height="3.34831"
     fill="#b23a48"
     id="rect4709" />
  <rect
     x="596.94506"
     y="378.80075"
     width="118.02809"
     height="3.34831"
     fill="#b23a48"
     id="rect4711" />
  <rect
     x="596.94506"
     y="409.77266"
     width="118.02809"
     height="3.34831"
     fill="#b23a48"
     id="rect4713" />
  <rect
     x="740.92259"
     y="409.77266"
     width="82.03371"
     height="3.34831"
     fill="#b23a48"
     id="rect4715" />
  <polygon
     points="585.652 361.964 571.516 347.829 585.652 333.693 588.48 336.521 577.172 347.829 588.48 359.136 585.652 361.964"
     fill="#b23a48"
     id="polygon4717" />
  <polygon
     points="861.036 427.257 858.208 424.429 869.516 413.12 858.208 401.813 861.036 398.985 875.172 413.12 861.036 427.257"
     fill="#b23a48"
     id="polygon4719" />
  <rect
     x="968.59125"
     y="533.99771"
     width="28.86361"
     height="4.00006"
     transform="translate(45.81388 1198.01366) rotate(-73.13998)"
     fill="#b23a48"
     id="rect4721" />
  <path
     d="M231.95115,674.97664l74.0679-110.14639-73.91642,121.996.15457,12.39424q-8.11088.06185-16.06418-.27013l3.6736-159.31973-.10065-1.22909.13556-.23748.35161-15.05475L139.14005,405.34256l81.01738,106.49915.28751,3.1821,2.77474-120.37228L153.15983,272.55438l70.25938,100.95121-.73336-249.38034.00157-.83.02384.81631L227.362,320.65679,291.21318,240.82,227.571,337.58873l1.39359,107.67021,58.75622-105.082L229.18056,461.0883l.77576,59.87006,85.4474-146.378L230.21608,541.84447Z"
     transform="translate(-139.14005 -123.29522)"
     fill="#d0cde1"
     id="path4723" />
  <path
     style="fill:#6c5353;fill-opacity:1;stroke-width:0.14343187"
     d="m 442.57506,205.15969 c -0.0592,-0.0594 -0.10758,-0.25051 -0.10758,-0.42468 0,-0.29131 0.12356,-0.33693 1.5419,-0.56944 0.90275,-0.14799 2.68639,-0.2814 4.30295,-0.32186 l 2.76107,-0.0691 v 0.4473 0.44729 l -2.11562,0.003 c -1.8397,0.002 -3.58344,0.15596 -5.70142,0.50196 -0.31555,0.0515 -0.62214,0.0451 -0.6813,-0.0143 z"
     id="path4744"
     inkscape:connector-curvature="0" />
  <path
     style="fill:#6c5353;fill-opacity:1;stroke-width:0.01792898"
     d="m 453.82371,212.98711 c -0.0499,-0.056 -0.0875,-0.10515 -0.0835,-0.10916 0.004,-0.004 0.0462,0.015 0.0939,0.0423 0.12092,0.0693 0.0927,0.0438 -0.0671,-0.0605 -0.14175,-0.0925 -0.36262,-0.28805 -0.39764,-0.35198 -0.0113,-0.0206 -0.026,-0.0697 -0.0327,-0.10912 l -0.0122,-0.0717 -0.002,0.0627 c -0.001,0.0353 0.014,0.0893 0.0349,0.12363 0.045,0.0737 0.0207,0.0998 -0.0568,0.0611 -0.0285,-0.0142 -0.0599,-0.0208 -0.0699,-0.0146 -0.0276,0.017 -0.0219,-0.0406 0.0174,-0.17803 0.0195,-0.0684 0.0317,-0.12809 0.027,-0.13276 -0.005,-0.005 -0.001,-0.0173 0.008,-0.0281 0.0159,-0.0193 0.0759,-0.20943 0.0827,-0.26162 0.002,-0.0148 0.0124,-0.0488 0.0232,-0.0755 0.0109,-0.0267 0.0229,-0.0671 0.0266,-0.0897 0.004,-0.0226 0.0162,-0.0639 0.0277,-0.0918 0.0115,-0.028 0.0163,-0.0582 0.0107,-0.0672 -0.006,-0.009 -0.003,-0.0164 0.006,-0.0164 0.009,0 0.0243,-0.0303 0.0346,-0.0672 0.0183,-0.0652 0.0189,-0.0656 0.0203,-0.0134 8e-4,0.0296 -0.0254,0.15867 -0.0582,0.28686 -0.0643,0.25109 -0.0709,0.31712 -0.0131,0.12983 0.0934,-0.30245 0.16121,-0.75868 0.17248,-1.16075 l 0.007,-0.25997 -0.0167,0.22412 c -0.009,0.12326 -0.0238,0.28462 -0.0324,0.35858 l -0.0157,0.13446 -0.006,-0.16136 c -0.003,-0.0888 -0.004,-0.17749 -0.003,-0.19722 0.002,-0.0197 0.007,-0.1367 0.0118,-0.25997 0.0227,-0.56282 0.0276,-0.66332 0.0389,-0.79784 0.0121,-0.1441 0.0246,-0.16954 0.0832,-0.17005 0.025,-2.1e-4 0.0297,0.0101 0.022,0.049 -0.009,0.045 -0.008,0.0458 0.008,0.009 0.0219,-0.0497 0.0518,-0.0501 0.26005,-0.004 0.18438,0.0408 0.20491,0.0423 0.11744,0.009 -0.0609,-0.0234 -0.058,-0.0243 0.0986,-0.029 0.173,-0.005 0.1934,-0.004 0.30707,0.0124 0.0719,0.0106 0.0743,0.0132 0.085,0.0914 0.006,0.0455 0.003,0.096 -0.008,0.11625 -0.0106,0.0199 -0.0185,0.12498 -0.0176,0.23612 8.8e-4,0.11017 -0.003,0.30115 -0.008,0.42442 -0.005,0.12326 -0.0128,0.32356 -0.0165,0.44511 -0.004,0.12155 -0.0115,0.22576 -0.0174,0.23158 -0.006,0.006 -0.0107,0.0597 -0.0109,0.11965 -1.7e-4,0.06 -0.0121,0.16461 -0.0265,0.2325 -0.0144,0.0679 -0.0218,0.13042 -0.0166,0.13895 0.005,0.009 0.002,0.0155 -0.007,0.0155 -0.0141,0 -0.0371,0.0723 -0.0487,0.1524 -10e-4,0.01 -0.012,0.0408 -0.0234,0.0687 -0.0115,0.0279 -0.0163,0.0582 -0.0107,0.0672 0.006,0.009 0.002,0.0164 -0.007,0.0164 -0.01,0 -0.0237,0.0343 -0.0314,0.0762 -0.0161,0.0881 -0.0155,0.0858 -0.0309,0.12102 -0.006,0.0148 -0.0146,0.043 -0.0181,0.0627 -0.004,0.0197 -0.0154,0.0577 -0.0264,0.0845 -0.011,0.0267 -0.0225,0.0671 -0.0256,0.0896 -0.003,0.0226 -0.0105,0.0491 -0.0165,0.059 -0.006,0.01 -0.0325,0.0946 -0.0591,0.18825 -0.0422,0.14884 -0.0588,0.18107 -0.13151,0.25549 -0.0458,0.0468 -0.0889,0.0852 -0.0959,0.0852 -0.007,0 -0.0535,-0.0458 -0.10349,-0.10187 z m 0.30977,-0.31049 c 0.006,-0.0246 -0.004,-0.0126 -0.0233,0.0269 -0.019,0.0394 -0.0348,0.0798 -0.0351,0.0897 -9.3e-4,0.0274 0.0458,-0.0658 0.0584,-0.11654 z m 0.0814,-0.24204 c 5.4e-4,-0.01 -0.007,-0.006 -0.0164,0.009 -0.01,0.0148 -0.0169,0.039 -0.0164,0.0538 0.001,0.0284 0.0309,-0.0288 0.0328,-0.0628 z m 0.0697,-0.28687 c 0,-0.0284 -0.003,-0.0265 -0.0144,0.009 -0.008,0.0247 -0.0143,0.061 -0.0143,0.0807 0,0.0284 0.003,0.0265 0.0143,-0.009 0.008,-0.0247 0.0144,-0.061 0.0144,-0.0807 z m 0.0158,-0.084 c -0.006,-0.0143 -0.01,-0.0101 -0.0108,0.0108 -7.8e-4,0.0189 0.003,0.0295 0.009,0.0235 0.006,-0.006 0.007,-0.0214 10e-4,-0.0344 z m 0.038,-0.14903 c 0,-0.0284 -0.003,-0.0265 -0.0144,0.009 -0.008,0.0247 -0.0143,0.061 -0.0143,0.0807 0,0.0284 0.003,0.0265 0.0143,-0.009 0.008,-0.0247 0.0144,-0.061 0.0144,-0.0807 z m 0.0154,-0.1031 c -0.005,-0.0123 -0.009,-0.002 -0.009,0.0224 0,0.0247 0.004,0.0347 0.009,0.0224 0.005,-0.0123 0.005,-0.0325 0,-0.0448 z m 0.0179,-0.0896 c -0.005,-0.0123 -0.009,-0.002 -0.009,0.0224 0,0.0247 0.004,0.0347 0.009,0.0224 0.005,-0.0123 0.005,-0.0325 0,-0.0448 z m 0.0377,-0.17481 c 0,-0.04 -10e-4,-0.039 -0.0137,0.009 -0.008,0.0296 -0.0137,0.0739 -0.0137,0.0986 0,0.04 10e-4,0.039 0.0137,-0.009 0.008,-0.0296 0.0137,-0.074 0.0137,-0.0986 z m 0.0548,-0.36754 c -5.6e-4,-0.0296 -0.0115,0.0108 -0.0244,0.0896 -0.0129,0.0789 -0.023,0.1636 -0.0225,0.18826 5e-4,0.0247 0.0115,-0.0157 0.0244,-0.0897 0.0129,-0.074 0.023,-0.15867 0.0225,-0.18825 z m 0.0156,-0.14792 c -0.005,-0.0173 -0.008,-0.003 -0.008,0.0314 0,0.0345 0.004,0.0486 0.008,0.0314 0.005,-0.0173 0.005,-0.0455 0,-0.0627 z m -0.84205,-0.69026 c -0.004,-0.032 -0.007,-0.006 -0.007,0.0583 0,0.0641 0.003,0.0903 0.007,0.0583 0.004,-0.032 0.004,-0.0845 0,-0.11654 z m 0.82996,-0.31908 -0.0192,-0.044 0.009,0.0448 c 0.005,0.0247 0.0104,0.061 0.0119,0.0807 0.003,0.0349 0.003,0.0349 0.01,-8.4e-4 0.004,-0.0202 -0.001,-0.0565 -0.0119,-0.0807 z m -0.0339,-0.0936 c -0.0177,-0.0176 -0.0198,-0.0155 -0.01,0.01 0.007,0.0177 0.0168,0.0276 0.0223,0.0221 0.006,-0.006 10e-6,-0.02 -0.0122,-0.0322 z m -0.76075,-0.0442 c -0.005,-0.0174 -0.009,-0.008 -0.009,0.0221 -3.6e-4,0.0296 0.003,0.0438 0.008,0.0317 0.005,-0.0121 0.005,-0.0363 6.6e-4,-0.0538 z m 0.7406,0.006 c 0,-0.004 -0.0141,-0.0179 -0.0314,-0.0314 -0.0284,-0.0223 -0.0291,-0.0217 -0.007,0.007 0.0234,0.0299 0.0381,0.0394 0.0381,0.0246 z m -0.72322,-0.10529 c -0.005,-0.0123 -0.009,-0.002 -0.009,0.0224 0,0.0247 0.004,0.0347 0.009,0.0224 0.005,-0.0123 0.005,-0.0325 0,-0.0448 z m 0.52114,-0.0243 c -0.006,-0.006 -0.0214,-0.007 -0.0344,-10e-4 -0.0143,0.006 -0.0101,0.01 0.0108,0.0108 0.0189,7.8e-4 0.0295,-0.003 0.0235,-0.009 z"
     id="path4754"
     inkscape:connector-curvature="0" />
  <path
     style="fill:#6c5353;fill-opacity:1;stroke-width:0.01792898"
     d="m 461.96904,207.87899 c -0.52171,-0.53733 -1.00101,-1.03298 -1.0651,-1.10144 l -0.11654,-0.12449 -1.47914,-0.51451 c -0.81353,-0.28297 -1.48165,-0.51622 -1.4847,-0.51832 -0.008,-0.006 0.30221,-0.89291 0.31868,-0.91004 0.008,-0.008 0.72492,0.23294 1.5934,0.53589 l 1.57906,0.5508 0.28436,0.28885 c 0.1564,0.15887 0.54183,0.5551 0.8565,0.88051 0.31468,0.32541 0.70343,0.72656 0.8639,0.89144 0.16046,0.16488 0.29175,0.30697 0.29175,0.31575 0,0.009 -0.15606,0.16594 -0.3468,0.34924 l -0.3468,0.33328 z"
     id="path4762"
     inkscape:connector-curvature="0" />
</svg>
