<?xml version="1.0" encoding="UTF-8" standalone="no"?>
<svg
   xmlns:dc="http://purl.org/dc/elements/1.1/"
   xmlns:cc="http://creativecommons.org/ns#"
   xmlns:rdf="http://www.w3.org/1999/02/22-rdf-syntax-ns#"
   xmlns:svg="http://www.w3.org/2000/svg"
   xmlns="http://www.w3.org/2000/svg"
   xmlns:sodipodi="http://sodipodi.sourceforge.net/DTD/sodipodi-0.dtd"
   xmlns:inkscape="http://www.inkscape.org/namespaces/inkscape"
   id="Layer_1"
   viewBox="0 0 260 15.6"
   version="1.1"
   sodipodi:docname="underline.svg"
   inkscape:version="0.92.4 (5da689c313, 2019-01-14)">
  <metadata
     id="metadata3741">
    <rdf:RDF>
      <cc:Work
         rdf:about="">
        <dc:format>image/svg+xml</dc:format>
        <dc:type
           rdf:resource="http://purl.org/dc/dcmitype/StillImage" />
        <dc:title></dc:title>
      </cc:Work>
    </rdf:RDF>
  </metadata>
  <defs
     id="defs3739" />
  <sodipodi:namedview
     pagecolor="#ffffff"
     bordercolor="#666666"
     borderopacity="1"
     objecttolerance="10"
     gridtolerance="10"
     guidetolerance="10"
     inkscape:pageopacity="0"
     inkscape:pageshadow="2"
     inkscape:window-width="1920"
     inkscape:window-height="1017"
     id="namedview3737"
     showgrid="false"
     inkscape:zoom="22.627417"
     inkscape:cx="227.76782"
     inkscape:cy="1.0581294"
     inkscape:window-x="3832"
     inkscape:window-y="-8"
     inkscape:window-maximized="1"
     inkscape:current-layer="Layer_1" />
  <style
     id="style3728">
    .st0{fill:#f3bc34}
  </style>
  <path
     class="st0"
     d="M206.8 7.3l-.1.3c.1-.2.2-.3.1-.3zM234.7 10h-.1c-.2.4-.1.3.1 0zM54.8 4.2l-.6-.4c.2.4.4.5.6.4zM17.1 5.1zM34.5 9.6l.1.3c0-.2 0-.3-.1-.3zM22.4 10.8c-.3-.1-.7-.1-1-.1.2.1.7.1 1 .1zM17.5 5c-.1.1-.2.1-.4.2.2-.1.3-.2.4-.2zM52.7 9.8l.5.9c-.1-.3-.3-.6-.5-.9zM19.5 11.6c-.2-.2-.4-.2-.6-.3 0 .2.3.3.6.3zM120.9 11.4c-.1.1-.2.2-.2.3.3-.1.3-.2.2-.3zM80.9 10.4h-.1s.1.1.2.1l-.1-.1zM92.6 10.4l-.2.2c.2-.1.2-.1.2-.2zM72.1 11.3c-.1.1-.3.2-.4.3l.4-.3z"
     id="path3730" />
  <path
     class="st0"
     d="M260 6c-1-.6-4.7-1.2-5.8.3-.2-.1.1-.3.2-.4-.9.2-2.2.1-3.6 0s-2.9-.2-4.2 0c-1 1.5-3.9-.6-4.8 1.4l.5-.4c.9.5-1.2 1.4-1.5 1.9-.8-1.2-.1-1-1-2l1.1.4-.3-1c-3.1 2.8-6.2-.9-8.2 1.1.1-.1.1-.3.2-.4-1.4-.5-2.3.8-3.3 1.2-.1-.5.6-.9 1.1-1.3-2.4-.3-6.4 1.2-9 .4-.9.7.4.9-.6 1.5-.8-.2-1.4-.7-.4-1.1-2.3-1.2-7.6 1-11.1-.2-1.8.8-.7 1.1-3.5 1.6.7-.5-.7-1.7 1-1.7l.2-.5c-2.8-.1-6.6-.3-8.1 1.2-.1-1.1-.5-.2-1.6-.8-.4.1 0 .2.2.2-1 .9-1.6-.1-2.3.1l.3-.2-2 .7c-.3-.2-.8-.4-.9-.7v.8c-1.1 0-.5-1-1.9-.8l.3.6c-.9-.4-2.2.4-2.4-.5 0-.2.1-.1.4-.1-1.3-1.2-3.5.3-5.1-.3l.4 1.3c-1.6.4-1-.3-.9-.7-1.1 0-1.3-.4-2.7-.6-.7.3-.4.5-.6.8l-1.5-.4 1-.7c-2.3 1.8-5.6-.4-7.2 1.2-.8-.4.8-.7.3-1-2.6-.9-6 1-8.2 0-3.6-1-7.8-.4-11.8-1.1l.1.3-2.9-.4c-.8.7-2.7.3-4 1.1.1-.3-.1-.7.2-.9-1.2.1-2.6.4-3.3-.1l.4-.3c-2.7-.3-6.4-.5-7.9.1-.9 0-.9-.6-1.1-1-1.6-.1-2.6.2-3.9.7-.3-.2-.7-.3-1-.6l-.6.8c-.6-.1-.1-.7-.6-.9-2.5.9-5.3-.1-7-.1l.2.4c-.7.3-2.1-.3-1.2-.7-3.4-.6-5.1 1.2-9.6.8-.6-1.5-4.1.3-4.8-1.4-1.9.4-3.2-.3-4.5.6 0-.2-.2-.2.1-.3-.8-.6-3.3-.2-5.3.2l-.1-.5c-.9 1.2-4.2.9-4.9 2-.2-.2.4-.5.7-.7-1-1.1-1.8.5-3.1.2.1-.3-.3-.6 0-.8-4.4-1.2-10.6.7-16.3-.1-1.6 0 .6 1.2-1.5 1.1-.6-.6 1-1.1-.3-1.4-.9.7-1.3.5-2.6.5.2-.4 0-.6.9-.9-.7-.5-3.1.9-4.5 0 .1.3-.2.5-.5.7-2.1 1-4.9-.9-5.1-.4 0 0-.7.2-.1.3-.8 0-1.9-.2-1.7-.7-.4.3-.8.8-1.4.8l.3-.6c-.4.1-.8.5-1.1.6l.6.4c-.9-.5-2.6.8-2.6-.4h.3l-1.7-.5c-.7.5-1.3 1-2.5.9-.5-1.3-2.9-.2-4.3-.3l.1-.4c-1.1.6-4 .4-3.5.6-1.1 0-2.6-.2-2-.6-.8.1-2.7.1-3.2.9l-1.8-1c-1 1.6-3.6-.5-3.6 1.2-1-.2-.8-.6-1.5-.9-1.4.9-2.8.8-4.2.7v-.2c-1.4-.1-3.1.8-5.1 1l-.5-1.2c-1 .2-1.3 1.2-2.3 1-.2-.2 0-.3.2-.3-1 .3-2.3.1-3.1-.2-1.5 1-2.7.7-3.9 1.8-1.3-1 1.7-.6.6-1.6-2.2-.4-4.4.4-6.7 1.1-.2-.2 0-.4.1-.7 0 0-1.2.9-2.2 1.8C.9 8.3 0 9.4.5 10c-.5.9-1.2 1.4.9 2 .6-.5 2.5-1.3 2.9-.4l.1-.9c2.6-.6.4 1.8 3.6 1.6l-.7-.3c.6-.1 1.1-.7 1.8-.5.2.2-.2.4-.5.6.9-.5 1.7-.9 2.6-1.4.1.5.1.8-.4 1.2 2.5-.2-.6-1.6 2.4-1.4.6.4-.2.6-.5.9 1.4.7 2.3-.1 3.8-.6.1.8-.9.7.3 1.2-.3-.4-.5-1.1.5-1.2-.4.8.7.4 1.6.5-.2-.3-.1-.6.2-.8.4-.1.8.1 1.4.1l-1.1-.7c1.5-.8 2.4.3 3.6.6-.1.1-.3.3-.5.3 1.2.3 2.5.9 4.1.1l-.3.1c2.9-.9-1-1.3 2.4-2.2 1.1.1-.4 2.6 2.1 1.6-1.3-.6 1.6-1.7 3.1-2L32.4 10c.6 0 1.6-.5 2-.3l-.1-.3c-.2-1.3 1.9.1 3-.7-1.3 1.8-1.4 1.5-1.6 3.2 1-1 2.2-1.9 4.1-1.8l-1.5 1.4c2.5.2 5.5-1.9 7.6-3-.5 1 .3 1.4-.6 2.2l2.4-.3-.7 1.1c1-1.2 2.1-.4 1.9-1.9-.3.2-.2.4-.7.3.1-.4.5-1.4 1.7-1.3.9.3-.5.6-.2 1 .8-.6.9.3 1.7-.1l-.8-.6c.6-.9 1.4-.1 2.2-.5-1 .4-.7.9-.3 1.4l-.1-.1c.8-.1 1.6-.7 2-.2l-.5 1.2.9-.9c.3.1.6.6 0 .8 2.8.7-.1-2.5 3.6-1.5 0 .5-.4.8-1.4.5-.2.7.1 1.1 1.1 1.4v.1c1.9 0 4.4 0 5.6-.8.4.3 0 .6-.4.9 2.1.4 2.8-.7 5 .1l-1-.4c1.4-.6 4-.8 5.3.1l-.4.3c1.3-.7 3.5.6 4 0-.6-.4 0-.6-.8-1l3.4-.7.2 1.2 1.8-.4c-.4-.5 2.4.4 2.5-.7 1 .4-.4.9-.8 1.4 1-.3 1.1.2 2.1-.5l1 1.1 2.6-.7c-.1.1 0 .2-.1.3 1.2-.9 3.1.6 4.6-.9-.1.1-.1.1-.1.2.9-.8 2.9-.2 3.7 0 1.4-.2.6-1 .6-1.4 3.9.4 2.7.3 6-.9 2 1.4-2.4 2.1.1 3 .4-.6 2.1-1.1 4.1-1.3 1.8.5 4.8.9 6.5 1.9l-.2-.9 2.6-.4-1.5 1.2c.4-.3 1.7-.8 2.6-1.2 2.7-.7 1.4 1.9 3.5.7.1.1.1.2.2.3.7-.6 2.4-.3 4.4-.5l-.7 1.1-1.3-.3c.7 1.1 2.1-.1 3.4 0 1.3-.3.7-1.3 1.4-1.6.5.1 1.2-.2 1.6.1 1.1.4.1 1.3-.3 1.8 1-1.1 1.4-.9 3.6-1.3.1.5-.1.8-.4.9.5-.1.9-.3 1.2-.8l.7.7c2.5 1 2.6-2 5.6-1.5-.8.6 2.6 0 3.5.7-1.1.1.4 1.6-.2 2.3 2.4.5 1-1.3 3-1.4l-.9 1.3c1.9-.5.5-.7 2.4-1.1-.5.4.8.4-.3.8 2.5.2 1.9.1 4.1.3l.2-1.3c.7-.1 1 .5 1.2.7-.3 0-.8-.1-.7.1.8 1.2 1.4-.6 2.4.5-.2-.4-.5-1 .4-1.1-.3.8 1.4.8 1.4 1.2-.6-.6 2-.2 2.1-1 1 .7-.4.6-.4 1.1.9-1 3.7 0 4.6-.6 0 .1.1.1.1.2 1.2-.6 3-.7 5.3-1.5l-.8.7c2.2.4 1.4-1.5 3.3-1.5-.4 1.1 3.1 0 2.2 1.2 1.1-.6 2.3-.8 3.1-1.7 1 .6-2.1 1.4-.6 1.8l1.6-.5.3.6c.1-.4 1.5-.4 1.4-.8.2.7.9 1.2.8 1.8 1-.2 2.4.5 3.3-.1l.1.3c1-1.3 3.1-.2 3.6-1.5l.6.7c1.5-.1 1.3-1.5 2-1.8.6 0 1.4-.2 2 0-2 .8 1 1.1 1.4 1.6.8 0 3.1 0 3.7-.7-1 .7-.4 1.2-2.1 1.3.9 1.3 2.6-.2 4.5-.1v.6c2.7-.4 2.8-1.5 4-2.5.3.8.1 1-.7 1.7 1.8.5 4.7-.1 6.7 0 .6.5.2.9-.5 1.1 2.1-.6 4.7.1 6-1.2-.5.5.9.3 1.6.6 0-.3.1-.6.2-.6 1.3-.6 4.1-1.1 5.6-.7l-.5.4c1.7.1 3-.5 4.3-.9 1.3-.4 2.6-.8 4.5-.4.7.3-.7 1.1.7 1 .7-.5.4-1.5 2.2-1.3l-.1.9 1.2-.9c-.7-.7-2.6-.4-1.3-1.2 1.6.8 1.3-.9 3.3 0-.4.1-1 .8-1.3 1.2 2 .4 3.4.1 4.8-.1 1.4-.3 2.8-.6 4.9-.2 2-.8 4.6-1.2 5.9-1.9 0 .9 0 1.7-.8 2.4 1.8 0 2.4-2.1 3.7-.9.7-1.3 4.7-1.2 5-3l2-.8z"
     id="path3732"
     style="fill:#b23a48;fill-opacity:1" />
  <path
     class="st0"
     d="M58.1 11.1c-1 0-1.9 0-2.3.2.2.2 2.3.6 2.3-.2zM208.2 13.3c-.1 0-.3.1-.4.1.1 0 .3 0 .4-.1zM216.3 12.9c-.1-.1-.2-.2-.4-.3 0 .3.1.5.4.3zM132.6 11.5zM178.5 13.7c.7-.4 1-.7 1-1-.4.1-.7.3-1 1zM163 12.6c-.1.1-.2.1-.3.2.3-.1.3-.2.3-.2zM130.2 12c.7-.4 1.6-.3 2.4-.5-.7.2-1.9-.3-2.4.5zM226.1 11.4l-.7.6.8-.4zM218.6 12c-.3-.1-1.7.3-1.3.6.4-.3.9-.5 1.3-.6zM189.6 11.4l-.3.6.7-.5z"
     id="path3734" />
  <path
     style="fill:#b23a48;fill-opacity:1;stroke-width:0.0184136"
     d="m 56.911637,11.559344 c -0.368478,-0.0272 -0.868168,-0.133257 -1.033983,-0.219448 l -0.06564,-0.03412 0.06445,-0.02733 c 0.107663,-0.04566 0.274153,-0.08291 0.506374,-0.113314 0.209067,-0.02737 1.044912,-0.06326 1.496104,-0.06425 l 0.207153,-4.52e-4 v 0.04786 c 0,0.06454 -0.04615,0.157582 -0.106727,0.215191 -0.168374,0.160111 -0.565449,0.232953 -1.067724,0.195869 z"
     id="path4548"
     inkscape:connector-curvature="0" />
  <path
     style="fill:#b23a48;fill-opacity:1;stroke-width:0.00390625"
     d="m 34.549713,9.7438092 -0.04764,-0.1430494 0.01586,0.00254 c 0.04292,0.00686 0.06413,0.036627 0.07352,0.1032044 0.0039,0.027578 0.01026,0.1803582 0.0075,0.1803582 -8.86e-4,0 -0.02305,-0.064372 -0.04925,-0.1430494 z"
     id="path4550"
     inkscape:connector-curvature="0" />
  <path
     style="fill:#b23a48;fill-opacity:1;stroke-width:0.00390625"
     d="m 19.380047,11.593044 c -0.235607,-0.02269 -0.405831,-0.101291 -0.459063,-0.211963 -0.0128,-0.02661 -0.02337,-0.07677 -0.01619,-0.07677 0.0015,0 0.0094,0.0035 0.0177,0.0077 0.02718,0.01387 0.09148,0.03821 0.186261,0.07052 0.05132,0.01749 0.107898,0.03785 0.125727,0.04523 0.08211,0.03399 0.151454,0.07525 0.213677,0.127157 0.05344,0.04458 0.05317,0.04249 0.0054,0.04186 -0.02228,-2.93e-4 -0.05535,-0.002 -0.07348,-0.0037 z"
     id="path4552"
     inkscape:connector-curvature="0" />
  <path
     style="fill:#b23a48;fill-opacity:1;stroke-width:0.00390625"
     d="m 21.979418,10.79228 c -0.232081,-0.01 -0.405015,-0.03301 -0.513671,-0.06836 -0.02256,-0.0073 -0.04365,-0.01508 -0.04687,-0.0172 -0.0039,-0.0026 0.03767,-0.0039 0.125,-0.0039 0.345736,-6e-5 0.624055,0.02883 0.80664,0.08373 l 0.03125,0.0094 -0.166015,-3.33e-4 c -0.09131,-1.82e-4 -0.197657,-0.0017 -0.236329,-0.0034 z"
     id="path4554"
     inkscape:connector-curvature="0" />
  <path
     style="fill:#b23a48;fill-opacity:1;stroke-width:0.03125"
     d="m 130.3079,11.875562 c 0.1132,-0.124753 0.32417,-0.239983 0.52664,-0.28764 0.19476,-0.04584 1.11554,-0.05933 1.14187,-0.01672 0.009,0.01419 -0.15564,0.04338 -0.36535,0.06487 -0.61845,0.06338 -0.86834,0.120333 -1.31878,0.300588 -0.0542,0.02168 -0.0521,0.01356 0.0156,-0.06109 z"
     id="path4556"
     inkscape:connector-curvature="0" />
  <path
     style="fill:#b23a48;fill-opacity:1;stroke-width:0.03125"
     d="m 178.5579,13.622641 c 0,-0.0091 0.0439,-0.103529 0.0976,-0.209877 0.13339,-0.264245 0.42953,-0.554108 0.65239,-0.638555 0.0945,-0.03582 0.17501,-0.06249 0.17884,-0.05927 0.004,0.0032 -0.007,0.05667 -0.0242,0.118767 -0.0447,0.161781 -0.267,0.393568 -0.58917,0.614224 -0.26967,0.184701 -0.31546,0.210061 -0.31546,0.174711 z"
     id="path4558"
     inkscape:connector-curvature="0" />
  <path
     style="fill:#b23a48;fill-opacity:1;stroke-width:0.03125"
     d="m 189.3704,11.905846 c 0,-0.0182 0.21684,-0.459625 0.23635,-0.481148 0.0175,-0.01933 0.32615,0.0631 0.32615,0.0871 0,0.01246 -0.10898,0.100049 -0.24219,0.194635 -0.28192,0.200194 -0.32031,0.224089 -0.32031,0.19941 z"
     id="path4560"
     inkscape:connector-curvature="0" />
  <path
     style="fill:#b23a48;fill-opacity:1;stroke-width:0.03125"
     d="m 215.96937,12.896969 c -0.0155,-0.03008 -0.0381,-0.109051 -0.0501,-0.175495 l -0.0218,-0.120807 0.10366,0.07115 c 0.18923,0.12988 0.27946,0.226785 0.23655,0.254034 -0.0731,0.0464 -0.23864,0.02858 -0.2683,-0.02888 z"
     id="path4562"
     inkscape:connector-curvature="0" />
  <path
     style="fill:#b23a48;fill-opacity:1;stroke-width:0.03125"
     d=""
     id="path4564"
     inkscape:connector-curvature="0" />
  <path
     style="fill:#b23a48;fill-opacity:1;stroke-width:0.03125"
     d="m 217.26689,12.556474 c -0.042,-0.04199 -0.0205,-0.126119 0.0489,-0.191314 0.15297,-0.143712 0.75795,-0.351547 1.02053,-0.350597 0.0951,3.44e-4 0.0619,0.02068 -0.2177,0.133469 -0.18144,0.07318 -0.43456,0.196049 -0.5625,0.273031 -0.28455,0.171225 -0.26336,0.161306 -0.28925,0.135411 z"
     id="path4566"
     inkscape:connector-curvature="0" />
  <path
     style="fill:#b23a48;fill-opacity:1;stroke-width:0.03125"
     d=""
     id="path4568"
     inkscape:connector-curvature="0" />
  <path
     style="fill:#b23a48;fill-opacity:1;stroke-width:0.03125"
     d="m 225.56051,11.877427 c 0.007,-0.0065 0.13146,-0.113243 0.27623,-0.237316 l 0.26321,-0.225585 0.0439,0.08383 c 0.0242,0.0461 0.0393,0.08799 0.0337,0.09308 -0.0234,0.02108 -0.58887,0.297721 -0.6086,0.297721 -0.0118,0 -0.0156,-0.0053 -0.008,-0.01173 z"
     id="path4570"
     inkscape:connector-curvature="0" />
  <path
     style="fill:#b23a48;fill-opacity:1;stroke-width:0.0078125"
     d="m 234.50059,10.234792 c 0.003,-0.01413 0.0253,-0.07038 0.0501,-0.125 l 0.0452,-0.0993 0.0448,-0.0023 c 0.0247,-0.0013 0.0448,-2.17e-4 0.0448,0.0024 0,0.01448 -0.14223,0.208182 -0.17207,0.234336 l -0.0178,0.01563 z"
     id="path4572"
     inkscape:connector-curvature="0" />
</svg>
